<svg width="81" height="21" viewBox="0 0 81 21" fill="none" xmlns="http://www.w3.org/2000/svg">
<path d="M12.672 17.528C13.056 17.528 13.568 17.0907 14.208 16.216C14.848 15.32 15.4773 14.1787 16.096 12.792C16.736 11.384 17.12 10.68 17.248 10.68C17.3973 10.68 17.472 10.7653 17.472 10.936C17.472 11.5333 17.1627 12.4827 16.544 13.784C14.8587 17.368 13.4293 19.16 12.256 19.16C11.2747 19.16 10.5707 18.9893 10.144 18.648C9.952 18.456 9.856 16.4293 9.856 12.568L4.608 12.952C4.20267 14.0613 3.84 15.1707 3.52 16.28C3.2 17.3893 2.98667 18.072 2.88 18.328C2.64533 18.8827 2.08 19.16 1.184 19.16C0.586667 19.16 0.288 18.904 0.288 18.392C0.288 17.88 0.693333 17.1333 1.504 16.152C1.65333 15.96 2.144 14.9253 2.976 13.048C2.67733 13.0693 2.38933 13.08 2.112 13.08C1.36533 13.08 0.992 12.76 0.992 12.12C0.992 11.544 1.29067 11.256 1.888 11.256C1.93067 11.256 2.53867 11.3093 3.712 11.416C4.032 10.6693 4.37333 9.93333 4.736 9.208C7.53067 3.36267 9.45067 0.439999 10.496 0.439999C11.2853 0.439999 11.8293 4.09867 12.128 11.416H12.416C12.5653 11.416 12.64 11.5227 12.64 11.736C12.64 11.9493 12.48 12.1307 12.16 12.28C12.288 15.7787 12.4587 17.528 12.672 17.528ZM5.088 11.576C7.584 11.576 9.17333 11.5653 9.856 11.544C9.83467 11.2027 9.81333 10.6053 9.792 9.752C9.77067 8.89867 9.74933 8.16267 9.728 7.544C9.70667 6.904 9.68533 6.24267 9.664 5.56C9.57867 4.088 9.45067 3.352 9.28 3.352C9.04533 3.352 8.56533 4.04533 7.84 5.432C7.11467 6.81867 6.54933 7.992 6.144 8.952C5.58933 10.3387 5.23733 11.2133 5.088 11.576ZM18.8153 10.648L20.5753 10.456C20.7459 10.456 20.8953 10.552 21.0233 10.744C21.1513 10.936 21.2153 11.1387 21.2153 11.352C21.2153 11.5653 21.1406 12.2907 20.9913 13.528C20.8633 14.7653 20.7993 15.7467 20.7993 16.472C20.7993 17.176 20.8633 17.528 20.9913 17.528C21.3539 17.5067 21.8553 17.0587 22.4953 16.184C23.1353 15.288 23.7646 14.1467 24.3833 12.76C25.0233 11.3733 25.4073 10.68 25.5353 10.68C25.6846 10.68 25.7593 10.7653 25.7593 10.936C25.7593 11.5333 25.4499 12.4827 24.8313 13.784C23.1459 17.368 21.7273 19.16 20.5753 19.16C19.7433 19.16 19.1139 18.9893 18.6873 18.648C18.5379 18.4987 18.4633 17.5707 18.4633 15.864C18.4633 14.1573 18.6446 12.696 19.0073 11.48C17.7699 11.48 16.9059 11.0853 16.4153 10.296C16.1593 9.89067 16.0312 9.432 16.0312 8.92C16.0312 8.408 16.1379 7.96 16.3513 7.576C16.5646 7.192 16.8633 7 17.2473 7C17.6526 7 18.0153 7.21333 18.3353 7.64C18.6766 8.04533 18.8473 8.504 18.8473 9.016C18.8473 9.528 18.6979 10.04 18.3993 10.552C18.4846 10.616 18.6233 10.648 18.8153 10.648ZM31.3555 13.784C29.6702 17.368 28.2408 19.16 27.0675 19.16C25.9155 19.16 25.2328 19.0213 25.0195 18.744C24.8275 18.4667 24.7315 17.5493 24.7315 15.992C24.7315 14.4347 24.8808 12.184 25.1795 9.24C24.1128 9.02667 23.5475 8.58933 23.4835 7.928C23.4835 7.58667 23.7075 7.416 24.1555 7.416C24.6035 7.416 24.9982 7.50133 25.3395 7.672C25.5315 6.136 25.7555 4.57867 26.0115 3C26.0755 2.59467 26.2782 2.21067 26.6195 1.848C26.9608 1.48533 27.2915 1.304 27.6115 1.304C27.8888 1.304 28.0275 1.74133 28.0275 2.616C28.0275 3.02133 27.8782 4.888 27.5795 8.216C28.1555 8.10933 28.7848 7.896 29.4675 7.576C30.1715 7.256 30.5875 7.096 30.7155 7.096C31.0995 7.096 31.2915 7.21333 31.2915 7.448C31.3128 7.66133 30.9182 7.96 30.1075 8.344C29.2968 8.70667 28.4222 8.984 27.4835 9.176C27.2275 12.2907 27.0995 14.648 27.0995 16.248C27.0995 17.1013 27.2275 17.528 27.4835 17.528C27.8675 17.5067 28.3795 17.0587 29.0195 16.184C29.6595 15.3093 30.2888 14.1787 30.9075 12.792C31.5475 11.384 31.9315 10.68 32.0595 10.68C32.2088 10.68 32.2835 10.7653 32.2835 10.936C32.2835 11.5333 31.9742 12.4827 31.3555 13.784ZM32.833 6.168L33.153 7.672C33.153 8.03467 33.025 8.33333 32.769 8.568C32.513 8.80267 32.2143 8.92 31.873 8.92C31.5317 8.92 31.2757 8.76 31.105 8.44C30.9557 8.12 30.881 7.768 30.881 7.384C30.881 6.232 31.3717 5.19733 32.353 4.28C33.3557 3.34133 34.4863 2.872 35.745 2.872H35.937C36.3637 1.25067 37.0037 0.439999 37.857 0.439999C38.113 0.439999 38.241 0.781332 38.241 1.464C38.241 1.592 38.209 2.104 38.145 3C38.465 3.04267 38.8383 3.096 39.265 3.16C40.2677 3.30933 41.0997 3.384 41.761 3.384C42.4437 3.384 43.1263 3.27733 43.809 3.064C44.513 2.82933 44.9823 2.712 45.217 2.712C45.8143 2.712 46.113 3.02133 46.113 3.64C46.113 4.23733 45.793 4.696 45.153 5.016C44.513 5.31467 43.585 5.464 42.369 5.464C41.153 5.464 39.6703 5.18667 37.921 4.632C37.665 6.104 37.5157 7.21333 37.473 7.96C37.4303 8.70667 37.3877 9.816 37.345 11.288C38.241 11.2453 39.4783 11.224 41.057 11.224C41.3343 11.224 41.569 11.3307 41.761 11.544C41.9743 11.7573 42.081 11.9813 42.081 12.216C42.081 12.4507 42.0063 12.6427 41.857 12.792C41.7077 12.9413 41.5477 13.016 41.377 13.016L37.313 12.792C37.2277 14.8827 37.153 16.3013 37.089 17.048C37.0463 17.7947 36.8437 18.488 36.481 19.128C36.1183 19.768 35.6917 20.088 35.201 20.088C34.9237 20.088 34.6143 19.9387 34.273 19.64C33.953 19.3627 33.793 19.096 33.793 18.84C33.793 18.584 33.825 18.392 33.889 18.264C33.9743 18.1147 34.0597 17.976 34.145 17.848C34.2517 17.6987 34.3263 17.5813 34.369 17.496C34.625 16.9413 34.8597 15.416 35.073 12.92L33.825 13.08C33.6543 13.08 33.5157 13.0267 33.409 12.92C33.3023 12.792 33.249 12.6533 33.249 12.504C33.249 12.3333 33.281 12.184 33.345 12.056C33.409 11.928 33.537 11.832 33.729 11.768C33.921 11.6827 34.0597 11.6293 34.145 11.608C34.4863 11.5227 34.8277 11.48 35.169 11.48C35.2117 10.968 35.265 9.85867 35.329 8.152C35.4143 6.44533 35.5317 5.112 35.681 4.152C35.553 4.13067 35.361 4.12 35.105 4.12C33.5903 4.12 32.833 4.80267 32.833 6.168ZM47.6228 19.16C46.4281 19.16 45.4787 18.712 44.7747 17.816C44.0707 16.8987 43.7188 15.864 43.7188 14.712C43.7188 12.3867 44.2094 10.6267 45.1908 9.432C46.1721 8.23733 47.4414 7.64 48.9988 7.64C49.7241 7.64 50.3214 7.84267 50.7908 8.248C51.2601 8.632 51.4948 9.16533 51.4948 9.848C51.4948 11.128 50.9508 12.2053 49.8628 13.08C48.7961 13.9333 47.4841 14.3813 45.9268 14.424C46.0121 15.256 46.2894 15.9813 46.7588 16.6C47.2494 17.1973 47.8148 17.496 48.4548 17.496C49.0948 17.496 49.6708 17.3467 50.1828 17.048C50.6948 16.7493 51.1641 16.3227 51.5908 15.768C52.4868 14.5947 53.2548 13.2613 53.8948 11.768C54.0654 11.384 54.1934 11.1067 54.2788 10.936C54.3854 10.7653 54.4921 10.68 54.5988 10.68C54.7268 10.68 54.7908 10.7653 54.7908 10.936C54.7908 12.0027 54.1401 13.6027 52.8388 15.736C51.4308 18.0187 49.6921 19.16 47.6228 19.16ZM45.9268 13.656C47.1854 13.4427 48.1028 13.0373 48.6788 12.44C49.2761 11.8427 49.5748 11.064 49.5748 10.104C49.5748 9.144 49.2654 8.664 48.6468 8.664C47.9001 8.664 47.2708 9.18667 46.7588 10.232C46.2468 11.256 45.9694 12.3973 45.9268 13.656ZM62.0858 19.16C61.2538 19.16 60.6244 18.9893 60.1978 18.648C60.0484 18.4987 59.9738 18.1253 59.9738 17.528C59.9738 16.9093 59.9951 16.088 60.0378 15.064C59.4831 16.4507 58.9284 17.4853 58.3738 18.168C57.8404 18.8293 57.1471 19.16 56.2938 19.16C55.4404 19.16 54.6938 18.7653 54.0538 17.976C53.4138 17.1653 53.0938 15.9067 53.0938 14.2C53.0938 12.472 53.5738 10.9467 54.5338 9.624C55.5151 8.30133 56.7951 7.64 58.3738 7.64C59.0564 7.64 59.8244 8.088 60.6778 8.984C60.8484 8.74933 61.1471 8.472 61.5738 8.152C62.0218 7.81067 62.3951 7.64 62.6938 7.64C63.0138 7.64 63.1738 8.04533 63.1738 8.856C63.1738 9.06933 63.1098 9.48533 62.9818 10.104C62.8751 10.7227 62.7471 11.1707 62.5978 11.448C62.4058 11.9387 62.3098 13.6773 62.3098 16.664C62.3098 17.24 62.3738 17.528 62.5017 17.528C62.8644 17.5067 63.3658 17.0587 64.0058 16.184C64.6458 15.288 65.2751 14.1467 65.8938 12.76C66.5338 11.3733 66.9178 10.68 67.0458 10.68C67.1951 10.68 67.2698 10.7653 67.2698 10.936C67.2698 11.5333 66.9604 12.4827 66.3418 13.784C64.6564 17.368 63.2378 19.16 62.0858 19.16ZM58.1818 8.92C57.5844 8.92 56.9444 9.368 56.2618 10.264C55.6004 11.1387 55.2698 12.1733 55.2698 13.368C55.2698 14.5627 55.4404 15.544 55.7818 16.312C56.1444 17.08 56.6138 17.464 57.1898 17.464C57.8938 17.464 58.9284 15.704 60.2938 12.184C60.3151 12.0133 60.3364 11.7253 60.3578 11.32C60.4004 10.8933 60.4324 10.5733 60.4538 10.36C60.2618 10.0187 59.9204 9.69867 59.4298 9.4C58.9604 9.08 58.5444 8.92 58.1818 8.92ZM70.0798 9.208L70.1438 8.728C70.1438 8.344 69.9198 8.152 69.4718 8.152C69.0451 8.152 68.6291 8.44 68.2238 9.016C67.8184 9.57067 67.6158 10.0293 67.6158 10.392C67.6158 10.7547 67.6371 11.0427 67.6798 11.256C67.7224 11.4693 67.7651 11.6507 67.8078 11.8C67.8718 11.928 67.9678 12.088 68.0958 12.28C68.2238 12.472 68.3198 12.6107 68.3838 12.696L68.7358 13.144C68.8851 13.3573 68.9918 13.496 69.0558 13.56C70.1651 12.6427 71.4878 11.6187 73.0238 10.488C73.1091 10.424 73.2051 10.392 73.3118 10.392C73.5251 10.392 73.6318 10.5093 73.6318 10.744C73.6318 10.9787 73.5358 11.16 73.3438 11.288C71.9784 12.1627 70.6878 13.112 69.4718 14.136C69.9411 14.8187 70.1758 15.5653 70.1758 16.376C70.1758 17.1867 69.8664 17.88 69.2478 18.456C68.6291 19.032 67.8398 19.32 66.8798 19.32C65.9198 19.32 65.4398 18.8613 65.4398 17.944C65.4398 17.2827 66.1438 16.2693 67.5518 14.904C67.4451 14.776 67.2531 14.5733 66.9758 14.296C66.6984 13.9973 66.4851 13.7627 66.3358 13.592C66.2078 13.4213 66.0478 13.1973 65.8558 12.92C65.5144 12.3867 65.3438 11.8107 65.3438 11.192C65.3438 9.93333 65.7491 8.92 66.5598 8.152C67.3704 7.36267 68.2344 6.968 69.1518 6.968C69.7278 6.968 70.1758 7.128 70.4958 7.448C70.8158 7.74667 70.9758 8.056 70.9758 8.376C70.9758 9.10133 70.8051 9.464 70.4638 9.464C70.2078 9.464 70.0798 9.37867 70.0798 9.208ZM68.0318 15.512C67.1784 16.3653 66.7518 17.0587 66.7518 17.592C66.7518 18.104 67.0184 18.36 67.5518 18.36C67.8718 18.36 68.1384 18.232 68.3518 17.976C68.8211 17.336 68.7144 16.5147 68.0318 15.512ZM79.168 13.784C77.4827 17.368 76.0533 19.16 74.88 19.16C73.728 19.16 73.0453 19.0213 72.832 18.744C72.64 18.4667 72.544 17.5493 72.544 15.992C72.544 14.4347 72.6933 12.184 72.992 9.24C71.9253 9.02667 71.36 8.58933 71.296 7.928C71.296 7.58667 71.52 7.416 71.968 7.416C72.416 7.416 72.8107 7.50133 73.152 7.672C73.344 6.136 73.568 4.57867 73.824 3C73.888 2.59467 74.0907 2.21067 74.432 1.848C74.7733 1.48533 75.104 1.304 75.424 1.304C75.7013 1.304 75.84 1.74133 75.84 2.616C75.84 3.02133 75.6907 4.888 75.392 8.216C75.968 8.10933 76.5973 7.896 77.28 7.576C77.984 7.256 78.4 7.096 78.528 7.096C78.912 7.096 79.104 7.21333 79.104 7.448C79.1253 7.66133 78.7307 7.96 77.92 8.344C77.1093 8.70667 76.2347 8.984 75.296 9.176C75.04 12.2907 74.912 14.648 74.912 16.248C74.912 17.1013 75.04 17.528 75.296 17.528C75.68 17.5067 76.192 17.0587 76.832 16.184C77.472 15.3093 78.1013 14.1787 78.72 12.792C79.36 11.384 79.744 10.68 79.872 10.68C80.0213 10.68 80.096 10.7653 80.096 10.936C80.096 11.5333 79.7867 12.4827 79.168 13.784Z" fill="#212121"/>
</svg>
